<svg width="1200" height="320" viewBox="0 0 1200 320" fill="none" xmlns="http://www.w3.org/2000/svg" role="img" aria-labelledby="title desc">
  <title id="title">Architect of Intelligence project banner</title>
  <desc id="desc">Banner for Architect of Intelligence: structured AI workflow platform prototype.</desc>
  <defs>
    <linearGradient id="bg" x1="0" y1="0" x2="1200" y2="320" gradientUnits="userSpaceOnUse">
      <stop stop-color="#0F172A"/>
      <stop offset="1" stop-color="#26213F"/>
    </linearGradient>
    <linearGradient id="accent" x1="80" y1="80" x2="1080" y2="240" gradientUnits="userSpaceOnUse">
      <stop stop-color="#38BDF8"/>
      <stop offset="0.52" stop-color="#A78BFA"/>
      <stop offset="1" stop-color="#22C55E"/>
    </linearGradient>
  </defs>
  <rect width="1200" height="320" rx="28" fill="url(#bg)"/>
  <path d="M78 224 C218 110 356 124 500 176 C638 226 768 108 920 136 C1016 154 1084 206 1124 126" stroke="url(#accent)" stroke-width="5" stroke-linecap="round"/>
  <rect x="68" y="62" width="1064" height="196" rx="22" fill="#020617" fill-opacity="0.38" stroke="#E5E7EB" stroke-opacity="0.12"/>
  <text x="104" y="122" fill="#E5E7EB" font-family="Segoe UI, Inter, Arial, sans-serif" font-size="20" font-weight="650" letter-spacing="2">AI WORKFLOW PLATFORM</text>
  <text x="104" y="178" fill="#FFFFFF" font-family="Segoe UI, Inter, Arial, sans-serif" font-size="50" font-weight="750">Architect of Intelligence</text>
  <text x="104" y="224" fill="#CBD5E1" font-family="Segoe UI, Inter, Arial, sans-serif" font-size="25">TanStack Start | TypeScript | Zod | Structured AI</text>
  <g transform="translate(884 90)">
    <rect x="0" y="0" width="208" height="122" rx="16" fill="#0F172A" stroke="#A78BFA" stroke-opacity="0.34"/>
    <rect x="30" y="28" width="52" height="24" rx="6" fill="#38BDF8" fill-opacity="0.75"/>
    <rect x="126" y="28" width="52" height="24" rx="6" fill="#A78BFA" fill-opacity="0.75"/>
    <rect x="78" y="78" width="52" height="24" rx="6" fill="#22C55E" fill-opacity="0.75"/>
    <path d="M82 40 H126 M104 52 V78" stroke="#E5E7EB" stroke-opacity="0.6" stroke-width="2"/>
  </g>
</svg>
